<?xml version="1.0" encoding="UTF-8" standalone="no"?>
<!DOCTYPE svg PUBLIC "-//W3C//DTD SVG 1.1//EN" "http://www.w3.org/Graphics/SVG/1.1/DTD/svg11.dtd">
<svg width="100%" height="100%" viewBox="0 0 800 800" version="1.1" xmlns="http://www.w3.org/2000/svg" xmlns:xlink="http://www.w3.org/1999/xlink" xml:space="preserve" xmlns:serif="http://www.serif.com/" style="fill-rule:evenodd;clip-rule:evenodd;stroke-linejoin:round;stroke-miterlimit:2;">
    <title>Thrive Creative Exchange</title>
    <desc>Thrive Creative Exchange logo</desc>
    <g transform="matrix(1,0,0,1,-19891.027028,0)">
        <g id="Artboard6" transform="matrix(1,0,0,1,15015.027028,-5567)">
            <rect x="4876" y="5567" width="800" height="800" style="fill:none;"/>
            <g transform="matrix(1.10737,0,0,1.10737,-535.300719,-633.104027)">
                <g transform="matrix(1.58607,0,0,1.58607,651.108606,-2389.632124)">
                    <path d="M2989.075,5264.595L2924.064,5151L2989.372,5151L3020,5208.428L3050.628,5151L3112.806,5151L3051.94,5264.595L3112.806,5378.189L3050.628,5378.189L3020,5320.762L2989.372,5378.189L2924.064,5378.189L2989.075,5264.595Z"/>
                </g>
                <g transform="matrix(2.059727,0,0,2.059727,5044.649521,-4928.937904)">
                    <path d="M173.316,5351.408C157.819,5365.322 137.336,5373.792 114.89,5373.792C66.595,5373.792 27.386,5334.583 27.386,5286.288C27.386,5237.993 66.595,5198.784 114.89,5198.784C138.807,5198.784 160.496,5208.4 176.297,5223.974L148.698,5250.136C140.022,5242.318 128.539,5237.557 115.952,5237.557C88.936,5237.557 67.003,5259.491 67.003,5286.507C67.003,5313.522 88.936,5335.456 115.952,5335.456C125.974,5335.456 135.296,5332.438 143.059,5327.261L173.316,5351.408Z" style="fill:rgb(253,65,0);"/>
                </g>
                <g transform="matrix(1.633146,0,0,1.570796,2162.791858,5636.736601)">
                    <path d="M1879.973,91.138L1858.737,133.026L1811.254,133.026L1811.254,231.663L1763.664,320.836L1763.664,133.026L1681.144,133.026L1701.649,91.138L1879.973,91.138Z" style="fill:rgb(0,73,233);fill-rule:nonzero;"/>
                </g>
            </g>
        </g>
    </g>
</svg>
